<svg width="246" height="107" viewBox="0 0 246 107" fill="none" xmlns="http://www.w3.org/2000/svg">
<path d="M11.4151 84H0.871986L21.7996 26.0526H32.1842L53.1119 84H42.4102L37.7332 70.6031H16.0921L11.4151 84ZM25.6839 43.3338L19.1044 62.0418H34.8002L28.1414 43.3338C27.6657 41.8276 27.1108 40.0836 26.9523 38.8946C26.7145 40.0044 26.2388 41.7483 25.6839 43.3338ZM68.9395 84H58.7928V26.0526H80.9095C94.0686 26.0526 101.758 32.7114 101.758 44.1265C101.758 51.8951 98.1114 57.4441 91.2941 60.2186L102.313 84H91.2148L81.3851 62.3589H68.9395V84ZM68.9395 35.0895V53.4012H80.9095C87.3305 53.4012 91.1355 49.9926 91.1355 44.1265C91.1355 38.3396 87.3305 35.0895 80.9095 35.0895H68.9395ZM120.46 26.0526V56.4928L143.924 26.0526H155.894L136.71 50.7853L156.132 84H144.4L130.052 59.3466L120.46 71.6337V84H110.313V26.0526H120.46Z" fill="#FEFFFF"/>
<path fill-rule="evenodd" clip-rule="evenodd" d="M203.366 101.014H190.658C191.471 96.8422 192.181 92.5738 192.801 88.2483C193.341 84.4785 193.811 80.6649 194.219 76.8359C196.075 80.3008 197.807 84.0948 199.377 88.2483C200.861 92.1734 202.201 96.4196 203.366 101.014Z" fill="#FEFFFF"/>
<path fill-rule="evenodd" clip-rule="evenodd" d="M171 101.013C171.669 98.0857 172.251 95.0065 172.756 91.8228C174.215 82.6452 175.04 72.6018 175.468 62.8403C175.604 59.72 175.701 56.6287 175.764 53.6032C175.83 50.4447 175.861 47.3577 175.864 44.3859C175.868 40.9342 175.835 37.6374 175.78 34.5625C175.724 31.4659 175.646 28.5942 175.558 26.0156C178.731 26.732 182.112 27.6554 185.614 28.8433C189.314 30.0985 193.15 31.6487 197.021 33.5632C215.22 42.5638 234.2 59.6102 243.456 91.8228C244.3 94.7584 245.063 97.8202 245.737 101.013H212.526C211.704 97.749 210.772 94.6902 209.746 91.8228C206.272 82.1126 201.718 74.6047 196.694 68.8018C193.173 64.7349 189.421 61.5053 185.647 58.9427C185.51 62.4741 185.313 66.0917 185.045 69.7509C184.51 77.0581 183.689 84.5321 182.474 91.8228C181.957 94.9286 181.367 98.0011 180.699 101.013H171ZM197.23 44.0091C193.43 41.6143 189.602 39.6694 185.869 38.0906C185.924 41.4692 185.94 45.0795 185.898 48.8572C189.648 50.8529 193.455 53.2782 197.162 56.2248C206.881 63.9509 215.914 75.2621 221.443 91.8228H231.546C224.416 67.2937 211.009 52.6919 197.23 44.0091Z" fill="#FEFFFF"/>
<path d="M1.60535 100.559H0.168985L3.88665 90.3773H5.42159L9.15333 100.559H7.70288L6.78755 98.0238H2.50661L1.60535 100.559ZM4.47809 92.5741L2.92907 96.8269H6.37917L4.81606 92.5741C4.74565 92.3769 4.67524 92.1375 4.64708 91.9826C4.61891 92.1234 4.5485 92.3628 4.47809 92.5741ZM9.56952 97.1226C9.56952 94.968 10.9355 93.4753 12.9492 93.4753C14.6813 93.4753 15.8924 94.4611 16.1318 95.996H14.808C14.5827 95.1229 13.8786 94.6582 12.9915 94.6582C11.7382 94.6582 10.8792 95.6158 10.8792 97.1085C10.8792 98.5871 11.6818 99.5447 12.9351 99.5447C13.8786 99.5447 14.5827 99.0518 14.8221 98.2351H16.1458C15.8783 99.7278 14.5968 100.728 12.9351 100.728C10.9073 100.728 9.56952 99.2912 9.56952 97.1226ZM19.4858 100.559H18.1621V94.785H16.8102V93.6725H18.1621V91.5179H19.4858V93.6725H20.8377V94.785H19.4858V100.559ZM21.4624 98.5589H22.7297C22.7297 99.263 23.2649 99.6855 24.138 99.6855C25.0674 99.6855 25.6025 99.3053 25.6025 98.6716C25.6025 98.2069 25.3772 97.9253 24.659 97.7422L23.4479 97.4605C22.2228 97.1648 21.6454 96.5593 21.6454 95.5454C21.6454 94.278 22.7157 93.4753 24.2365 93.4753C25.7433 93.4753 26.7291 94.3202 26.7572 95.6299H25.4898C25.4617 94.9399 24.997 94.5033 24.1943 94.5033C23.3634 94.5033 22.8987 94.8694 22.8987 95.5031C22.8987 95.9678 23.2367 96.2777 23.9126 96.4466L25.1237 96.7424C26.2925 97.024 26.8699 97.5591 26.8699 98.5871C26.8699 99.8967 25.7433 100.728 24.1098 100.728C22.4904 100.728 21.4624 99.8686 21.4624 98.5589ZM31.7378 97.1085C31.7378 94.9821 33.2586 93.4894 35.3287 93.4894C37.3847 93.4894 38.9055 94.9821 38.9055 97.1085C38.9055 99.2349 37.3847 100.728 35.3287 100.728C33.2586 100.728 31.7378 99.2349 31.7378 97.1085ZM33.0755 97.1085C33.0755 98.5449 33.9909 99.5447 35.3287 99.5447C36.6524 99.5447 37.5818 98.5449 37.5818 97.1085C37.5818 95.6721 36.6524 94.6723 35.3287 94.6723C33.9909 94.6723 33.0755 95.6721 33.0755 97.1085ZM39.5973 93.6725H40.6112V92.5741C40.6112 90.8842 41.5406 90.1942 42.7939 90.1942C43.0474 90.1942 43.3431 90.2083 43.6107 90.2505V91.3912H43.0192C42.1602 91.3912 41.9349 91.8277 41.9349 92.5741V93.6725H43.5684V94.785H41.9349V100.559H40.6112V94.785H39.5973V93.6725ZM50.2549 100.559H48.8748V90.3773H52.7192C54.902 90.3773 56.1975 91.532 56.1975 93.4331C56.1975 94.8413 55.4934 95.8552 54.226 96.2636L56.2961 100.559H54.7611L52.8601 96.5311H50.2549V100.559ZM50.2549 91.6165V95.306H52.7333C54.0148 95.306 54.7471 94.616 54.7471 93.4472C54.7471 92.2643 53.9866 91.6165 52.7192 91.6165H50.2549ZM59.6021 100.728C58.1234 100.728 57.2504 99.8967 57.2504 98.6434C57.2504 97.3761 58.1939 96.5875 59.8133 96.4607L61.9819 96.2917V96.0946C61.9819 94.9399 61.2919 94.5315 60.3625 94.5315C59.25 94.5315 58.6163 95.0243 58.6163 95.8552H57.4616C57.4616 94.4188 58.6445 93.4753 60.4188 93.4753C62.1227 93.4753 63.2775 94.3766 63.2775 96.2354V100.559H62.1509L62.0101 99.4461C61.658 100.235 60.7145 100.728 59.6021 100.728ZM59.9823 99.6996C61.2356 99.6996 61.996 98.8828 61.996 97.5873V97.2211L60.2357 97.362C59.0669 97.4746 58.5882 97.9253 58.5882 98.6012C58.5882 99.3335 59.1233 99.6996 59.9823 99.6996ZM66.4344 100.559H65.1107V93.6725H66.3076L66.4485 94.7286C66.885 93.94 67.7581 93.4753 68.7298 93.4753C70.5463 93.4753 71.3772 94.5878 71.3772 96.3481V100.559H70.0535V96.6438C70.0535 95.2497 69.4057 94.6864 68.3918 94.6864C67.1526 94.6864 66.4344 95.5735 66.4344 96.9113V100.559ZM75.9707 100.728C73.971 100.728 72.76 99.2349 72.76 97.1367C72.76 95.0243 73.9851 93.4753 76.027 93.4753C77.0832 93.4753 77.9703 93.94 78.435 94.785V90.1942H79.7447V100.559H78.5618L78.4491 99.3053C77.9985 100.249 77.0691 100.728 75.9707 100.728ZM76.2382 99.5306C77.5901 99.5306 78.421 98.5308 78.421 97.0944C78.421 95.6862 77.5901 94.6723 76.2382 94.6723C74.8864 94.6723 74.0978 95.6862 74.0978 97.0944C74.0978 98.5167 74.8864 99.5306 76.2382 99.5306ZM81.2037 97.1085C81.2037 94.9821 82.7246 93.4894 84.7946 93.4894C86.8506 93.4894 88.3715 94.9821 88.3715 97.1085C88.3715 99.2349 86.8506 100.728 84.7946 100.728C82.7246 100.728 81.2037 99.2349 81.2037 97.1085ZM82.5415 97.1085C82.5415 98.5449 83.4568 99.5447 84.7946 99.5447C86.1183 99.5447 87.0478 98.5449 87.0478 97.1085C87.0478 95.6721 86.1183 94.6723 84.7946 94.6723C83.4568 94.6723 82.5415 95.6721 82.5415 97.1085ZM91.1605 100.559H89.8368V93.6725H91.0197L91.1464 94.5737C91.4985 93.9259 92.2307 93.4753 93.2024 93.4753C94.2726 93.4753 95.0331 94.0104 95.3851 94.8694C95.709 94.0104 96.5398 93.4753 97.6101 93.4753C99.1873 93.4753 100.145 94.4611 100.145 96.0523V100.559H98.8493V96.3762C98.8493 95.2919 98.2438 94.6723 97.3143 94.6723C96.3145 94.6723 95.6527 95.3764 95.6527 96.4748V100.559H94.343V96.3621C94.343 95.2778 93.7516 94.6864 92.8222 94.6864C91.8223 94.6864 91.1605 95.3764 91.1605 96.4748V100.559ZM107.436 90.3773V96.1509L111.97 90.3773H113.618L110.21 94.7005L113.674 100.559H112.069L109.295 95.8693L107.436 98.221V100.559H106.056V90.3773H107.436ZM115.527 92.039C115.048 92.039 114.654 91.6447 114.654 91.1659C114.654 90.673 115.048 90.2928 115.527 90.2928C116.006 90.2928 116.4 90.673 116.4 91.1659C116.4 91.6447 116.006 92.039 115.527 92.039ZM114.879 100.559V93.6725H116.203V100.559H114.879ZM119.448 100.559H118.125V93.6725H119.322L119.462 94.7286C119.899 93.94 120.772 93.4753 121.744 93.4753C123.56 93.4753 124.391 94.5878 124.391 96.3481V100.559H123.067V96.6438C123.067 95.2497 122.42 94.6864 121.406 94.6864C120.167 94.6864 119.448 95.5735 119.448 96.9113V100.559ZM128.985 100.728C126.985 100.728 125.774 99.2349 125.774 97.1367C125.774 95.0243 126.999 93.4753 129.041 93.4753C130.097 93.4753 130.984 93.94 131.449 94.785V90.1942H132.759V100.559H131.576L131.463 99.3053C131.012 100.249 130.083 100.728 128.985 100.728ZM129.252 99.5306C130.604 99.5306 131.435 98.5308 131.435 97.0944C131.435 95.6862 130.604 94.6723 129.252 94.6723C127.9 94.6723 127.112 95.6862 127.112 97.0944C127.112 98.5167 127.9 99.5306 129.252 99.5306ZM135.992 100.559H134.668V93.6725H135.865L136.006 94.7286C136.443 93.94 137.316 93.4753 138.287 93.4753C140.104 93.4753 140.935 94.5878 140.935 96.3481V100.559H139.611V96.6438C139.611 95.2497 138.963 94.6864 137.949 94.6864C136.71 94.6864 135.992 95.5735 135.992 96.9113V100.559ZM145.74 100.728C143.712 100.728 142.318 99.263 142.318 97.1226C142.318 94.968 143.684 93.4753 145.683 93.4753C147.641 93.4753 148.922 94.8272 148.922 96.8691V97.362L143.599 97.3761C143.698 98.8265 144.458 99.6292 145.768 99.6292C146.796 99.6292 147.472 99.2067 147.697 98.4181H148.936C148.598 99.8967 147.443 100.728 145.74 100.728ZM145.683 94.5878C144.528 94.5878 143.796 95.2778 143.627 96.4889H147.598C147.598 95.3482 146.852 94.5878 145.683 94.5878ZM149.837 98.5589H151.105C151.105 99.263 151.64 99.6855 152.513 99.6855C153.442 99.6855 153.977 99.3053 153.977 98.6716C153.977 98.2069 153.752 97.9253 153.034 97.7422L151.823 97.4605C150.598 97.1648 150.02 96.5593 150.02 95.5454C150.02 94.278 151.091 93.4753 152.611 93.4753C154.118 93.4753 155.104 94.3202 155.132 95.6299H153.865C153.837 94.9399 153.372 94.5033 152.569 94.5033C151.738 94.5033 151.274 94.8694 151.274 95.5031C151.274 95.9678 151.612 96.2777 152.288 96.4466L153.499 96.7424C154.667 97.024 155.245 97.5591 155.245 98.5871C155.245 99.8967 154.118 100.728 152.485 100.728C150.865 100.728 149.837 99.8686 149.837 98.5589ZM156.149 98.5589H157.417C157.417 99.263 157.952 99.6855 158.825 99.6855C159.754 99.6855 160.29 99.3053 160.29 98.6716C160.29 98.2069 160.064 97.9253 159.346 97.7422L158.135 97.4605C156.91 97.1648 156.333 96.5593 156.333 95.5454C156.333 94.278 157.403 93.4753 158.924 93.4753C160.43 93.4753 161.416 94.3202 161.444 95.6299H160.177C160.149 94.9399 159.684 94.5033 158.881 94.5033C158.051 94.5033 157.586 94.8694 157.586 95.5031C157.586 95.9678 157.924 96.2777 158.6 96.4466L159.811 96.7424C160.98 97.024 161.557 97.5591 161.557 98.5871C161.557 99.8967 160.43 100.728 158.797 100.728C157.177 100.728 156.149 99.8686 156.149 98.5589Z" fill="white"/>
</svg>
