<svg width="253" height="180" viewBox="0 0 253 211" fill="none" xmlns="http://www.w3.org/2000/svg">
  <path d="M143.939 17.3064C134.208 17.3291 124.547 18.9628 115.349 22.1412C109.22 18.9696 102.421 17.3118 95.5198 17.3064C83.8453 17.546 72.6843 22.1525 64.2381 30.2175C60.1185 21.9764 55.0651 17.3064 48.8856 17.3064C30.3473 17.3064 20.625 61.6711 20.625 105.514C20.625 149.357 30.3473 193.694 48.8856 193.694C54.9552 193.694 60.1185 188.914 64.2656 180.92C72.7258 188.928 83.8734 193.485 95.5198 193.694C102.421 193.688 109.22 192.031 115.349 188.859C127.367 192.736 140.08 193.976 152.62 192.497C165.161 191.017 177.236 186.851 188.022 180.284C198.809 173.716 208.053 164.9 215.127 154.437C222.2 143.974 226.937 132.109 229.013 119.651C231.089 107.192 230.457 94.4318 227.159 82.2395C223.861 70.0472 217.975 58.7089 209.902 48.9968C201.829 39.2846 191.758 31.4267 180.375 25.958C168.992 20.4894 156.565 17.5386 143.939 17.3064ZM95.5198 25.987C98.298 26.0048 101.064 26.3552 103.759 27.0309C91.2507 33.4688 80.453 42.7906 72.2576 54.2266C71.143 48.8848 69.6937 43.6185 67.9183 38.4586C71.4609 34.6511 75.726 31.5873 80.465 29.446C85.2039 27.3048 90.3217 26.1289 95.5198 25.987ZM146.878 105.514C146.878 139 133.448 167.569 114.525 179.354C97.5574 172.544 83.4347 160.125 74.5097 144.165C76.331 131.361 77.2487 118.446 77.2561 105.514C77.2478 92.5726 76.3301 79.648 74.5097 66.8355C83.4273 50.876 97.5534 38.4631 114.525 31.6734C133.448 43.3758 146.878 72.0549 146.878 105.514ZM61.7389 163.614C61.6763 163.992 61.5655 164.362 61.4093 164.712C50.918 150.126 44.2991 129.001 44.2991 105.514C44.2991 82.0266 50.918 60.9568 61.4093 46.3151C61.4093 46.6722 61.6565 47.0294 61.7389 47.3865C63.3838 53.2838 64.6769 59.2738 65.6113 65.3246C59.2217 77.7572 55.8886 91.5347 55.8886 105.514C55.8886 119.493 59.2217 133.27 65.6113 145.703C64.6408 151.747 63.311 157.728 61.629 163.614H61.7389ZM64.4853 105.514C64.4893 98.0124 65.5526 90.5491 67.6437 83.3452C68.1929 90.46 68.4951 97.877 68.4951 105.514C68.4951 113.151 68.1929 120.54 67.6437 127.682C65.5433 120.48 64.4708 113.017 64.4578 105.514H64.4853ZM48.8856 184.931C45.5899 184.931 40.3717 178.31 36.1423 163.531C31.2886 144.554 28.9705 125.018 29.2487 105.431C28.9474 85.844 31.2658 66.3043 36.1423 47.3315C40.3717 32.5525 45.5899 25.9321 48.8856 25.9321C51.1926 25.9321 54.5982 29.3384 57.8664 36.673C55.967 38.9238 54.1973 41.2809 52.5658 43.7329C41.5802 60.2151 35.5106 82.1914 35.5106 105.431C35.5106 128.671 41.5527 150.593 52.5658 167.13C54.1883 169.588 55.9584 171.946 57.8664 174.19C54.5982 181.607 51.2476 184.931 48.8856 184.931ZM95.5747 184.931C90.3936 184.777 85.2952 183.59 80.579 181.439C75.8628 179.288 71.6237 176.216 68.1106 172.404C69.879 167.232 71.2921 161.946 72.34 156.581C80.4887 168.109 91.2692 177.527 103.787 184.052C101.078 184.688 98.3012 184.983 95.5198 184.931H95.5747ZM143.994 184.931C137.517 184.957 131.061 184.192 124.769 182.651C130.097 178.204 134.726 172.981 138.501 167.157C149.487 150.675 155.529 128.699 155.529 105.486C155.529 82.2739 149.514 60.4349 138.529 43.7878C134.753 37.9728 130.124 32.7591 124.797 28.322C135.728 25.5624 147.122 25.1606 158.221 27.1433C169.319 29.126 179.87 33.4478 189.17 39.8216C198.471 46.1955 206.31 54.4757 212.166 64.1122C218.022 73.7487 221.761 84.5211 223.135 95.714C224.509 106.907 223.487 118.264 220.136 129.032C216.786 139.799 211.183 149.73 203.7 158.166C196.218 166.601 187.027 173.348 176.737 177.958C166.448 182.568 155.296 184.935 144.022 184.903L143.994 184.931Z" fill="#000"/>
</svg>
